<svg width="245" height="245" viewBox="0 0 245 245" fill="none" xmlns="http://www.w3.org/2000/svg">
<g filter="url(#filter0_d_1098_1950)">
<circle cx="122.5" cy="105.5" r="31.5" fill="url(#paint0_radial_1098_1950)"/>
<path d="M120.729 107.163C114.976 112.139 109.513 113.451 104.806 112.873C94.1436 111.564 90.8676 98.1798 97.0207 89.3742C104.173 79.1381 116.921 70.0071 130.98 75.8087C132.119 76.279 133.201 76.7838 134.227 77.3186C146.46 83.694 131.161 98.1381 120.729 107.163Z" fill="#5285F7" fill-opacity="0.72"/>
<path d="M109.749 118.376C111.75 117.75 113.852 117.361 115.998 117.162C132.681 115.619 135.948 137.23 119.249 135.876C115.817 135.981 111.329 134.178 107.831 132.206C105.352 130.808 102.455 129.465 101.335 126.849C100.264 124.348 101.432 120.975 109.749 118.376Z" fill="url(#paint1_linear_1098_1950)" fill-opacity="0.2"/>
<ellipse cx="122" cy="87" rx="18" ry="12" fill="url(#paint2_linear_1098_1950)" fill-opacity="0.2"/>
</g>
<defs>
<filter id="filter0_d_1098_1950" x="0" y="0" width="245" height="245" filterUnits="userSpaceOnUse" color-interpolation-filters="sRGB">
<feFlood flood-opacity="0" result="BackgroundImageFix"/>
<feColorMatrix in="SourceAlpha" type="matrix" values="0 0 0 0 0 0 0 0 0 0 0 0 0 0 0 0 0 0 127 0" result="hardAlpha"/>
<feOffset dy="17"/>
<feGaussianBlur stdDeviation="45.5"/>
<feComposite in2="hardAlpha" operator="out"/>
<feColorMatrix type="matrix" values="0 0 0 0 0.282353 0 0 0 0 0.490196 0 0 0 0 0.968627 0 0 0 0.6 0"/>
<feBlend mode="normal" in2="BackgroundImageFix" result="effect1_dropShadow_1098_1950"/>
<feBlend mode="normal" in="SourceGraphic" in2="effect1_dropShadow_1098_1950" result="shape"/>
</filter>
<radialGradient id="paint0_radial_1098_1950" cx="0" cy="0" r="1" gradientUnits="userSpaceOnUse" gradientTransform="translate(111 59) rotate(73.9557) scale(79.6006 55.8272)">
<stop stop-color="#61CDFF"/>
<stop offset="1" stop-color="#305BF3"/>
</radialGradient>
<linearGradient id="paint1_linear_1098_1950" x1="123.624" y1="117" x2="123.624" y2="135.95" gradientUnits="userSpaceOnUse">
<stop stop-color="#59B3FD"/>
<stop offset="1" stop-color="#59B3FD" stop-opacity="0"/>
</linearGradient>
<linearGradient id="paint2_linear_1098_1950" x1="122" y1="92.5" x2="122" y2="83" gradientUnits="userSpaceOnUse">
<stop stop-color="#E7F5FC" stop-opacity="0"/>
<stop offset="1" stop-color="#39FEFE"/>
</linearGradient>
</defs>
</svg>
