<svg width="245" height="245" viewBox="0 0 245 245" fill="none" xmlns="http://www.w3.org/2000/svg">
<g filter="url(#filter0_d_1_3)">
<circle cx="122.5" cy="105.5" r="31.5" fill="url(#paint0_radial_1_3)"/>
<path d="M120.729 107.163C107.197 118.868 95.2713 110.298 91 104.55C91 93.0535 109.452 66.925 130.98 75.8087C148.202 82.9157 152.166 97.9308 151.995 104.55C147.211 100.544 134.26 95.4574 120.729 107.163Z" fill="#5285F7" fill-opacity="0.72"/>
<path d="M146.249 123.376C139.449 134.576 125.415 136.376 119.249 135.876C114.449 136.023 107.582 132.437 104.249 129.876C101.082 128.209 96.9487 122.376 109.749 118.376C122.549 114.376 139.415 120.042 146.249 123.376Z" fill="url(#paint1_linear_1_3)" fill-opacity="0.2"/>
<ellipse cx="122" cy="87" rx="18" ry="12" fill="url(#paint2_linear_1_3)" fill-opacity="0.2"/>
</g>
<g filter="url(#filter1_d_1_3)">
<g filter="url(#filter2_d_1_3)">
<path d="M129.763 116.048C129.639 116.276 129.453 116.466 129.226 116.599C129 116.732 128.74 116.803 128.476 116.803H116.776C116.511 116.803 116.252 116.732 116.025 116.599C115.799 116.466 115.613 116.276 115.489 116.048C115.361 115.831 115.293 115.586 115.293 115.335C115.293 115.085 115.361 114.839 115.489 114.623L121.339 106.072C121.473 105.878 121.653 105.719 121.865 105.609C122.077 105.499 122.313 105.441 122.553 105.441C122.793 105.441 123.029 105.499 123.24 105.609C123.452 105.719 123.633 105.878 123.767 106.072L129.617 114.623C129.768 114.827 129.861 115.066 129.887 115.316C129.912 115.566 129.87 115.819 129.763 116.048Z" fill="white"/>
</g>
<g filter="url(#filter3_d_1_3)">
<path d="M134.325 111.102H131.4V108.252H134.325V96.8504H110.925V108.252H113.85V111.102H110.925C110.149 111.102 109.405 110.802 108.857 110.268C108.308 109.733 108 109.008 108 108.252V96.8504C108 96.0944 108.308 95.3694 108.857 94.8349C109.405 94.3003 110.149 94 110.925 94H134.325C135.101 94 135.845 94.3003 136.393 94.8349C136.942 95.3694 137.25 96.0944 137.25 96.8504V108.252C137.25 109.008 136.942 109.733 136.393 110.268C135.845 110.802 135.101 111.102 134.325 111.102Z" fill="white"/>
</g>
</g>
<defs>
<filter id="filter0_d_1_3" x="0" y="0" width="245" height="245" filterUnits="userSpaceOnUse" color-interpolation-filters="sRGB">
<feFlood flood-opacity="0" result="BackgroundImageFix"/>
<feColorMatrix in="SourceAlpha" type="matrix" values="0 0 0 0 0 0 0 0 0 0 0 0 0 0 0 0 0 0 127 0" result="hardAlpha"/>
<feOffset dy="17"/>
<feGaussianBlur stdDeviation="45.5"/>
<feComposite in2="hardAlpha" operator="out"/>
<feColorMatrix type="matrix" values="0 0 0 0 0.282353 0 0 0 0 0.490196 0 0 0 0 0.968627 0 0 0 0.6 0"/>
<feBlend mode="normal" in2="BackgroundImageFix" result="effect1_dropShadow_1_3"/>
<feBlend mode="normal" in="SourceGraphic" in2="effect1_dropShadow_1_3" result="shape"/>
</filter>
<filter id="filter1_d_1_3" x="101.8" y="86.8" width="41.65" height="35.2033" filterUnits="userSpaceOnUse" color-interpolation-filters="sRGB">
<feFlood flood-opacity="0" result="BackgroundImageFix"/>
<feColorMatrix in="SourceAlpha" type="matrix" values="0 0 0 0 0 0 0 0 0 0 0 0 0 0 0 0 0 0 127 0" result="hardAlpha"/>
<feMorphology radius="1" operator="dilate" in="SourceAlpha" result="effect1_dropShadow_1_3"/>
<feOffset dy="-1"/>
<feGaussianBlur stdDeviation="2.6"/>
<feComposite in2="hardAlpha" operator="out"/>
<feColorMatrix type="matrix" values="0 0 0 0 0 0 0 0 0 0 0 0 0 0 0 0 0 0 0.25 0"/>
<feBlend mode="normal" in2="BackgroundImageFix" result="effect1_dropShadow_1_3"/>
<feBlend mode="normal" in="SourceGraphic" in2="effect1_dropShadow_1_3" result="shape"/>
</filter>
<filter id="filter2_d_1_3" x="111.293" y="105.441" width="22.6016" height="19.3621" filterUnits="userSpaceOnUse" color-interpolation-filters="sRGB">
<feFlood flood-opacity="0" result="BackgroundImageFix"/>
<feColorMatrix in="SourceAlpha" type="matrix" values="0 0 0 0 0 0 0 0 0 0 0 0 0 0 0 0 0 0 127 0" result="hardAlpha"/>
<feOffset dy="4"/>
<feGaussianBlur stdDeviation="2"/>
<feComposite in2="hardAlpha" operator="out"/>
<feColorMatrix type="matrix" values="0 0 0 0 1 0 0 0 0 1 0 0 0 0 1 0 0 0 0.85 0"/>
<feBlend mode="normal" in2="BackgroundImageFix" result="effect1_dropShadow_1_3"/>
<feBlend mode="normal" in="SourceGraphic" in2="effect1_dropShadow_1_3" result="shape"/>
</filter>
<filter id="filter3_d_1_3" x="104" y="94" width="37.25" height="25.1024" filterUnits="userSpaceOnUse" color-interpolation-filters="sRGB">
<feFlood flood-opacity="0" result="BackgroundImageFix"/>
<feColorMatrix in="SourceAlpha" type="matrix" values="0 0 0 0 0 0 0 0 0 0 0 0 0 0 0 0 0 0 127 0" result="hardAlpha"/>
<feOffset dy="4"/>
<feGaussianBlur stdDeviation="2"/>
<feComposite in2="hardAlpha" operator="out"/>
<feColorMatrix type="matrix" values="0 0 0 0 1 0 0 0 0 1 0 0 0 0 1 0 0 0 0.85 0"/>
<feBlend mode="normal" in2="BackgroundImageFix" result="effect1_dropShadow_1_3"/>
<feBlend mode="normal" in="SourceGraphic" in2="effect1_dropShadow_1_3" result="shape"/>
</filter>
<radialGradient id="paint0_radial_1_3" cx="0" cy="0" r="1" gradientUnits="userSpaceOnUse" gradientTransform="translate(111 59) rotate(73.9557) scale(79.6006 55.8272)">
<stop stop-color="#61CDFF"/>
<stop offset="1" stop-color="#305BF3"/>
</radialGradient>
<linearGradient id="paint1_linear_1_3" x1="123.624" y1="117" x2="123.624" y2="135.95" gradientUnits="userSpaceOnUse">
<stop stop-color="#59B3FD"/>
<stop offset="1" stop-color="#59B3FD" stop-opacity="0"/>
</linearGradient>
<linearGradient id="paint2_linear_1_3" x1="122" y1="92.5" x2="122" y2="83" gradientUnits="userSpaceOnUse">
<stop stop-color="#E7F5FC" stop-opacity="0"/>
<stop offset="1" stop-color="#39FEFE"/>
</linearGradient>
</defs>
</svg>
